<mxfile host="app.diagrams.net" modified="2024-03-26T05:54:15.729Z" agent="Mozilla/5.0 (Windows NT 10.0; Win64; x64) AppleWebKit/537.36 (KHTML, like Gecko) Chrome/122.0.0.0 Safari/537.36" version="24.0.7" etag="EOouZeBKjrMPkb3koPxe" type="github">
  <diagram name="第 1 页" id="vu2MBvDtXvxAbupbZDbj">
    <mxGraphModel>
      <root>
        <mxCell id="0" />
        <mxCell id="1" parent="0" />
      </root>
    </mxGraphModel>
  </diagram>
</mxfile>
